<svg width="17" height="23" viewBox="0 0 17 23" fill="none" xmlns="http://www.w3.org/2000/svg">
<path d="M14.875 0H2.125C0.951823 0 0 0.96582 0 2.15625V20.8438C0 22.0342 0.951823 23 2.125 23H14.875C16.0482 23 17 22.0342 17 20.8438V2.15625C17 0.96582 16.0482 0 14.875 0ZM6.375 1.4375H10.625C11.0146 1.4375 11.3333 1.76094 11.3333 2.15625C11.3333 2.55156 11.0146 2.875 10.625 2.875H6.375C5.98542 2.875 5.66667 2.55156 5.66667 2.15625C5.66667 1.76094 5.98542 1.4375 6.375 1.4375ZM8.5 7.1875C10.0628 7.1875 11.3333 8.47676 11.3333 10.0625C11.3333 11.6482 10.0628 12.9375 8.5 12.9375C6.93724 12.9375 5.66667 11.6482 5.66667 10.0625C5.66667 8.47676 6.93724 7.1875 8.5 7.1875ZM13.4583 17.825C13.4583 18.3012 13.0156 18.6875 12.4667 18.6875H4.53333C3.98438 18.6875 3.54167 18.3012 3.54167 17.825V16.9625C3.54167 15.534 4.87422 14.375 6.51667 14.375H6.73802C7.28255 14.6041 7.87578 14.7344 8.5 14.7344C9.12422 14.7344 9.72188 14.6041 10.262 14.375H10.4833C12.1258 14.375 13.4583 15.534 13.4583 16.9625V17.825Z" fill="#359830"/>
</svg>
