<svg width="20" height="20" viewBox="0 0 20 20" fill="none" xmlns="http://www.w3.org/2000/svg">
<path d="M13.6858 9.9238L19.3283 4.28133C20.0207 3.58892 20.0207 2.46629 19.3283 1.77331L18.0743 0.519308C17.3819 -0.173103 16.2592 -0.173103 15.5663 0.519308L9.9238 6.16178L4.28133 0.519308C3.58892 -0.173103 2.46629 -0.173103 1.77332 0.519308L0.519308 1.77331C-0.173103 2.46573 -0.173103 3.58835 0.519308 4.28133L6.16178 9.9238L0.519308 15.5663C-0.173103 16.2587 -0.173103 17.3813 0.519308 18.0743L1.77332 19.3283C2.46573 20.0207 3.58892 20.0207 4.28133 19.3283L9.9238 13.6858L15.5663 19.3283C16.2587 20.0207 17.3819 20.0207 18.0743 19.3283L19.3283 18.0743C20.0207 17.3819 20.0207 16.2592 19.3283 15.5663L13.6858 9.9238Z" fill="#FF0000"/>
</svg>
