<svg width="187" height="30" viewBox="0 0 187 30" fill="none" xmlns="http://www.w3.org/2000/svg">
<path d="M48.8853 13.718C48.8853 12.494 49.1613 11.396 49.7133 10.424C50.2653 9.44 51.0153 8.672 51.9633 8.12C52.9233 7.568 53.9853 7.292 55.1493 7.292C56.5173 7.292 57.7113 7.622 58.7313 8.282C59.7513 8.942 60.4953 9.878 60.9633 11.09H59.0013C58.6533 10.334 58.1493 9.752 57.4893 9.344C56.8413 8.936 56.0613 8.732 55.1493 8.732C54.2733 8.732 53.4873 8.936 52.7913 9.344C52.0953 9.752 51.5493 10.334 51.1533 11.09C50.7573 11.834 50.5593 12.71 50.5593 13.718C50.5593 14.714 50.7573 15.59 51.1533 16.346C51.5493 17.09 52.0953 17.666 52.7913 18.074C53.4873 18.482 54.2733 18.686 55.1493 18.686C56.0613 18.686 56.8413 18.488 57.4893 18.092C58.1493 17.684 58.6533 17.102 59.0013 16.346H60.9633C60.4953 17.546 59.7513 18.476 58.7313 19.136C57.7113 19.784 56.5173 20.108 55.1493 20.108C53.9853 20.108 52.9233 19.838 51.9633 19.298C51.0153 18.746 50.2653 17.984 49.7133 17.012C49.1613 16.04 48.8853 14.942 48.8853 13.718ZM65.0396 11.738C65.3276 11.174 65.7356 10.736 66.2636 10.424C66.8036 10.112 67.4576 9.956 68.2256 9.956V11.648H67.7936C65.9576 11.648 65.0396 12.644 65.0396 14.636V20H63.4016V10.136H65.0396V11.738ZM70.9625 8.534C70.6505 8.534 70.3865 8.426 70.1705 8.21C69.9545 7.994 69.8465 7.73 69.8465 7.418C69.8465 7.106 69.9545 6.842 70.1705 6.626C70.3865 6.41 70.6505 6.302 70.9625 6.302C71.2625 6.302 71.5145 6.41 71.7185 6.626C71.9345 6.842 72.0425 7.106 72.0425 7.418C72.0425 7.73 71.9345 7.994 71.7185 8.21C71.5145 8.426 71.2625 8.534 70.9625 8.534ZM71.7545 10.136V20H70.1165V10.136H71.7545ZM73.9342 15.032C73.9342 14.024 74.1382 13.142 74.5462 12.386C74.9542 11.618 75.5122 11.024 76.2202 10.604C76.9402 10.184 77.7382 9.974 78.6142 9.974C79.4782 9.974 80.2282 10.16 80.8642 10.532C81.5002 10.904 81.9742 11.372 82.2862 11.936V10.136H83.9422V20H82.2862V18.164C81.9622 18.74 81.4762 19.22 80.8282 19.604C80.1922 19.976 79.4482 20.162 78.5962 20.162C77.7202 20.162 76.9282 19.946 76.2202 19.514C75.5122 19.082 74.9542 18.476 74.5462 17.696C74.1382 16.916 73.9342 16.028 73.9342 15.032ZM82.2862 15.05C82.2862 14.306 82.1362 13.658 81.8362 13.106C81.5362 12.554 81.1282 12.134 80.6122 11.846C80.1082 11.546 79.5502 11.396 78.9382 11.396C78.3262 11.396 77.7682 11.54 77.2642 11.828C76.7602 12.116 76.3582 12.536 76.0582 13.088C75.7582 13.64 75.6082 14.288 75.6082 15.032C75.6082 15.788 75.7582 16.448 76.0582 17.012C76.3582 17.564 76.7602 17.99 77.2642 18.29C77.7682 18.578 78.3262 18.722 78.9382 18.722C79.5502 18.722 80.1082 18.578 80.6122 18.29C81.1282 17.99 81.5362 17.564 81.8362 17.012C82.1362 16.448 82.2862 15.794 82.2862 15.05ZM88.3482 11.738C88.6362 11.174 89.0442 10.736 89.5722 10.424C90.1122 10.112 90.7662 9.956 91.5342 9.956V11.648H91.1022C89.2662 11.648 88.3482 12.644 88.3482 14.636V20H86.7102V10.136H88.3482V11.738ZM97.6119 13.718C97.6119 12.494 97.8879 11.396 98.4399 10.424C98.9919 9.44 99.7419 8.672 100.69 8.12C101.65 7.568 102.712 7.292 103.876 7.292C105.244 7.292 106.438 7.622 107.458 8.282C108.478 8.942 109.222 9.878 109.69 11.09H107.728C107.38 10.334 106.876 9.752 106.216 9.344C105.568 8.936 104.788 8.732 103.876 8.732C103 8.732 102.214 8.936 101.518 9.344C100.822 9.752 100.276 10.334 99.8799 11.09C99.4839 11.834 99.2859 12.71 99.2859 13.718C99.2859 14.714 99.4839 15.59 99.8799 16.346C100.276 17.09 100.822 17.666 101.518 18.074C102.214 18.482 103 18.686 103.876 18.686C104.788 18.686 105.568 18.488 106.216 18.092C106.876 17.684 107.38 17.102 107.728 16.346H109.69C109.222 17.546 108.478 18.476 107.458 19.136C106.438 19.784 105.244 20.108 103.876 20.108C102.712 20.108 101.65 19.838 100.69 19.298C99.7419 18.746 98.9919 17.984 98.4399 17.012C97.8879 16.04 97.6119 14.942 97.6119 13.718ZM120.876 10.136V20H119.238V18.542C118.926 19.046 118.488 19.442 117.924 19.73C117.372 20.006 116.76 20.144 116.088 20.144C115.32 20.144 114.63 19.988 114.018 19.676C113.406 19.352 112.92 18.872 112.56 18.236C112.212 17.6 112.038 16.826 112.038 15.914V10.136H113.658V15.698C113.658 16.67 113.904 17.42 114.396 17.948C114.888 18.464 115.56 18.722 116.412 18.722C117.288 18.722 117.978 18.452 118.482 17.912C118.986 17.372 119.238 16.586 119.238 15.554V10.136H120.876ZM125.28 11.738C125.568 11.174 125.976 10.736 126.504 10.424C127.044 10.112 127.698 9.956 128.466 9.956V11.648H128.034C126.198 11.648 125.28 12.644 125.28 14.636V20H123.642V10.136H125.28V11.738ZM133.849 20.162C133.093 20.162 132.415 20.036 131.815 19.784C131.215 19.52 130.741 19.16 130.393 18.704C130.045 18.236 129.853 17.702 129.817 17.102H131.509C131.557 17.594 131.785 17.996 132.193 18.308C132.613 18.62 133.159 18.776 133.831 18.776C134.455 18.776 134.947 18.638 135.307 18.362C135.667 18.086 135.847 17.738 135.847 17.318C135.847 16.886 135.655 16.568 135.271 16.364C134.887 16.148 134.293 15.938 133.489 15.734C132.757 15.542 132.157 15.35 131.689 15.158C131.233 14.954 130.837 14.66 130.501 14.276C130.177 13.88 130.015 13.364 130.015 12.728C130.015 12.224 130.165 11.762 130.465 11.342C130.765 10.922 131.191 10.592 131.743 10.352C132.295 10.1 132.925 9.974 133.633 9.974C134.725 9.974 135.607 10.25 136.279 10.802C136.951 11.354 137.311 12.11 137.359 13.07H135.721C135.685 12.554 135.475 12.14 135.091 11.828C134.719 11.516 134.215 11.36 133.579 11.36C132.991 11.36 132.523 11.486 132.175 11.738C131.827 11.99 131.653 12.32 131.653 12.728C131.653 13.052 131.755 13.322 131.959 13.538C132.175 13.742 132.439 13.91 132.751 14.042C133.075 14.162 133.519 14.3 134.083 14.456C134.791 14.648 135.367 14.84 135.811 15.032C136.255 15.212 136.633 15.488 136.945 15.86C137.269 16.232 137.437 16.718 137.449 17.318C137.449 17.858 137.299 18.344 136.999 18.776C136.699 19.208 136.273 19.55 135.721 19.802C135.181 20.042 134.557 20.162 133.849 20.162ZM144.063 20.162C143.139 20.162 142.299 19.952 141.543 19.532C140.799 19.112 140.211 18.518 139.779 17.75C139.359 16.97 139.149 16.07 139.149 15.05C139.149 14.042 139.365 13.154 139.797 12.386C140.241 11.606 140.841 11.012 141.597 10.604C142.353 10.184 143.199 9.974 144.135 9.974C145.071 9.974 145.917 10.184 146.673 10.604C147.429 11.012 148.023 11.6 148.455 12.368C148.899 13.136 149.121 14.03 149.121 15.05C149.121 16.07 148.893 16.97 148.437 17.75C147.993 18.518 147.387 19.112 146.619 19.532C145.851 19.952 144.999 20.162 144.063 20.162ZM144.063 18.722C144.651 18.722 145.203 18.584 145.719 18.308C146.235 18.032 146.649 17.618 146.961 17.066C147.285 16.514 147.447 15.842 147.447 15.05C147.447 14.258 147.291 13.586 146.979 13.034C146.667 12.482 146.259 12.074 145.755 11.81C145.251 11.534 144.705 11.396 144.117 11.396C143.517 11.396 142.965 11.534 142.461 11.81C141.969 12.074 141.573 12.482 141.273 13.034C140.973 13.586 140.823 14.258 140.823 15.05C140.823 15.854 140.967 16.532 141.255 17.084C141.555 17.636 141.951 18.05 142.443 18.326C142.935 18.59 143.475 18.722 144.063 18.722Z" fill="#359830"/>
<path d="M18.8719 4.38308L23.1 9.14065C23.2781 9.34108 23.2781 9.6681 23.1 9.86853L12.8625 21.388L8.5125 21.9312C7.93125 22.0051 7.43906 21.4513 7.50469 20.7972L7.9875 15.9025L18.225 4.38308C18.4031 4.18265 18.6938 4.18265 18.8719 4.38308ZM26.4656 3.17523L24.1781 0.601289C23.4656 -0.20043 22.3078 -0.20043 21.5906 0.601289L19.9313 2.46845C19.7531 2.66888 19.7531 2.9959 19.9313 3.19633L24.1594 7.9539C24.3375 8.15433 24.6281 8.15433 24.8062 7.9539L26.4656 6.08674C27.1781 5.27974 27.1781 3.97695 26.4656 3.17523ZM18 18.2549V23.6243H3V6.74604H13.7719C13.9219 6.74604 14.0625 6.67748 14.1703 6.56144L16.0453 4.45165C16.4016 4.05079 16.1484 3.37038 15.6469 3.37038H2.25C1.00781 3.37038 0 4.5044 0 5.90213V24.4683C0 25.866 1.00781 27 2.25 27H18.75C19.9922 27 21 25.866 21 24.4683V16.1451C21 15.5808 20.3953 15.3012 20.0391 15.6968L18.1641 17.8066C18.0609 17.9279 18 18.0861 18 18.2549Z" fill="#359830"/>
</svg>
