<svg width="187" height="30" viewBox="0 0 187 30" fill="none" xmlns="http://www.w3.org/2000/svg">
<path d="M41.0435 13.718C41.0435 12.494 41.3195 11.396 41.8715 10.424C42.4235 9.44 43.1735 8.672 44.1215 8.12C45.0815 7.568 46.1435 7.292 47.3075 7.292C48.6755 7.292 49.8695 7.622 50.8895 8.282C51.9095 8.942 52.6535 9.878 53.1215 11.09H51.1595C50.8115 10.334 50.3075 9.752 49.6475 9.344C48.9995 8.936 48.2195 8.732 47.3075 8.732C46.4315 8.732 45.6455 8.936 44.9495 9.344C44.2535 9.752 43.7075 10.334 43.3115 11.09C42.9155 11.834 42.7175 12.71 42.7175 13.718C42.7175 14.714 42.9155 15.59 43.3115 16.346C43.7075 17.09 44.2535 17.666 44.9495 18.074C45.6455 18.482 46.4315 18.686 47.3075 18.686C48.2195 18.686 48.9995 18.488 49.6475 18.092C50.3075 17.684 50.8115 17.102 51.1595 16.346H53.1215C52.6535 17.546 51.9095 18.476 50.8895 19.136C49.8695 19.784 48.6755 20.108 47.3075 20.108C46.1435 20.108 45.0815 19.838 44.1215 19.298C43.1735 18.746 42.4235 17.984 41.8715 17.012C41.3195 16.04 41.0435 14.942 41.0435 13.718ZM57.1978 11.738C57.4858 11.174 57.8938 10.736 58.4218 10.424C58.9618 10.112 59.6158 9.956 60.3838 9.956V11.648H59.9518C58.1158 11.648 57.1978 12.644 57.1978 14.636V20H55.5598V10.136H57.1978V11.738ZM63.1207 8.534C62.8087 8.534 62.5447 8.426 62.3287 8.21C62.1127 7.994 62.0047 7.73 62.0047 7.418C62.0047 7.106 62.1127 6.842 62.3287 6.626C62.5447 6.41 62.8087 6.302 63.1207 6.302C63.4207 6.302 63.6727 6.41 63.8767 6.626C64.0927 6.842 64.2007 7.106 64.2007 7.418C64.2007 7.73 64.0927 7.994 63.8767 8.21C63.6727 8.426 63.4207 8.534 63.1207 8.534ZM63.9127 10.136V20H62.2747V10.136H63.9127ZM66.0924 15.032C66.0924 14.024 66.2964 13.142 66.7044 12.386C67.1124 11.618 67.6704 11.024 68.3784 10.604C69.0984 10.184 69.8964 9.974 70.7724 9.974C71.6364 9.974 72.3864 10.16 73.0224 10.532C73.6584 10.904 74.1324 11.372 74.4444 11.936V10.136H76.1004V20H74.4444V18.164C74.1204 18.74 73.6344 19.22 72.9864 19.604C72.3504 19.976 71.6064 20.162 70.7544 20.162C69.8784 20.162 69.0864 19.946 68.3784 19.514C67.6704 19.082 67.1124 18.476 66.7044 17.696C66.2964 16.916 66.0924 16.028 66.0924 15.032ZM74.4444 15.05C74.4444 14.306 74.2944 13.658 73.9944 13.106C73.6944 12.554 73.2864 12.134 72.7704 11.846C72.2664 11.546 71.7084 11.396 71.0964 11.396C70.4844 11.396 69.9264 11.54 69.4224 11.828C68.9184 12.116 68.5164 12.536 68.2164 13.088C67.9164 13.64 67.7664 14.288 67.7664 15.032C67.7664 15.788 67.9164 16.448 68.2164 17.012C68.5164 17.564 68.9184 17.99 69.4224 18.29C69.9264 18.578 70.4844 18.722 71.0964 18.722C71.7084 18.722 72.2664 18.578 72.7704 18.29C73.2864 17.99 73.6944 17.564 73.9944 17.012C74.2944 16.448 74.4444 15.794 74.4444 15.05ZM80.5064 11.738C80.7944 11.174 81.2024 10.736 81.7304 10.424C82.2704 10.112 82.9244 9.956 83.6924 9.956V11.648H83.2604C81.4244 11.648 80.5064 12.644 80.5064 14.636V20H78.8684V10.136H80.5064V11.738ZM100.048 7.454V20H98.4101V14.312H92.0201V20H90.3821V7.454H92.0201V12.962H98.4101V7.454H100.048ZM102.233 15.032C102.233 14.024 102.437 13.142 102.845 12.386C103.253 11.618 103.811 11.024 104.519 10.604C105.239 10.184 106.037 9.974 106.913 9.974C107.777 9.974 108.527 10.16 109.163 10.532C109.799 10.904 110.273 11.372 110.585 11.936V10.136H112.241V20H110.585V18.164C110.261 18.74 109.775 19.22 109.127 19.604C108.491 19.976 107.747 20.162 106.895 20.162C106.019 20.162 105.227 19.946 104.519 19.514C103.811 19.082 103.253 18.476 102.845 17.696C102.437 16.916 102.233 16.028 102.233 15.032ZM110.585 15.05C110.585 14.306 110.435 13.658 110.135 13.106C109.835 12.554 109.427 12.134 108.911 11.846C108.407 11.546 107.849 11.396 107.237 11.396C106.625 11.396 106.067 11.54 105.563 11.828C105.059 12.116 104.657 12.536 104.357 13.088C104.057 13.64 103.907 14.288 103.907 15.032C103.907 15.788 104.057 16.448 104.357 17.012C104.657 17.564 105.059 17.99 105.563 18.29C106.067 18.578 106.625 18.722 107.237 18.722C107.849 18.722 108.407 18.578 108.911 18.29C109.427 17.99 109.835 17.564 110.135 17.012C110.435 16.448 110.585 15.794 110.585 15.05ZM116.647 11.972C116.983 11.384 117.475 10.904 118.123 10.532C118.771 10.16 119.509 9.974 120.337 9.974C121.225 9.974 122.023 10.184 122.731 10.604C123.439 11.024 123.997 11.618 124.405 12.386C124.813 13.142 125.017 14.024 125.017 15.032C125.017 16.028 124.813 16.916 124.405 17.696C123.997 18.476 123.433 19.082 122.713 19.514C122.005 19.946 121.213 20.162 120.337 20.162C119.485 20.162 118.735 19.976 118.087 19.604C117.451 19.232 116.971 18.758 116.647 18.182V20H115.009V6.68H116.647V11.972ZM123.343 15.032C123.343 14.288 123.193 13.64 122.893 13.088C122.593 12.536 122.185 12.116 121.669 11.828C121.165 11.54 120.607 11.396 119.995 11.396C119.395 11.396 118.837 11.546 118.321 11.846C117.817 12.134 117.409 12.56 117.097 13.124C116.797 13.676 116.647 14.318 116.647 15.05C116.647 15.794 116.797 16.448 117.097 17.012C117.409 17.564 117.817 17.99 118.321 18.29C118.837 18.578 119.395 18.722 119.995 18.722C120.607 18.722 121.165 18.578 121.669 18.29C122.185 17.99 122.593 17.564 122.893 17.012C123.193 16.448 123.343 15.788 123.343 15.032ZM128.019 8.534C127.707 8.534 127.443 8.426 127.227 8.21C127.011 7.994 126.903 7.73 126.903 7.418C126.903 7.106 127.011 6.842 127.227 6.626C127.443 6.41 127.707 6.302 128.019 6.302C128.319 6.302 128.571 6.41 128.775 6.626C128.991 6.842 129.099 7.106 129.099 7.418C129.099 7.73 128.991 7.994 128.775 8.21C128.571 8.426 128.319 8.534 128.019 8.534ZM128.811 10.136V20H127.173V10.136H128.811ZM133.241 6.68V20H131.603V6.68H133.241ZM136.878 8.534C136.566 8.534 136.302 8.426 136.086 8.21C135.87 7.994 135.762 7.73 135.762 7.418C135.762 7.106 135.87 6.842 136.086 6.626C136.302 6.41 136.566 6.302 136.878 6.302C137.178 6.302 137.43 6.41 137.634 6.626C137.85 6.842 137.958 7.106 137.958 7.418C137.958 7.73 137.85 7.994 137.634 8.21C137.43 8.426 137.178 8.534 136.878 8.534ZM137.67 10.136V20H136.032V10.136H137.67ZM139.85 15.032C139.85 14.024 140.054 13.142 140.462 12.386C140.87 11.618 141.428 11.024 142.136 10.604C142.856 10.184 143.66 9.974 144.548 9.974C145.316 9.974 146.03 10.154 146.69 10.514C147.35 10.862 147.854 11.324 148.202 11.9V6.68H149.858V20H148.202V18.146C147.878 18.734 147.398 19.22 146.762 19.604C146.126 19.976 145.382 20.162 144.53 20.162C143.654 20.162 142.856 19.946 142.136 19.514C141.428 19.082 140.87 18.476 140.462 17.696C140.054 16.916 139.85 16.028 139.85 15.032ZM148.202 15.05C148.202 14.306 148.052 13.658 147.752 13.106C147.452 12.554 147.044 12.134 146.528 11.846C146.024 11.546 145.466 11.396 144.854 11.396C144.242 11.396 143.684 11.54 143.18 11.828C142.676 12.116 142.274 12.536 141.974 13.088C141.674 13.64 141.524 14.288 141.524 15.032C141.524 15.788 141.674 16.448 141.974 17.012C142.274 17.564 142.676 17.99 143.18 18.29C143.684 18.578 144.242 18.722 144.854 18.722C145.466 18.722 146.024 18.578 146.528 18.29C147.044 17.99 147.452 17.564 147.752 17.012C148.052 16.448 148.202 15.794 148.202 15.05ZM152.014 15.032C152.014 14.024 152.218 13.142 152.626 12.386C153.034 11.618 153.592 11.024 154.3 10.604C155.02 10.184 155.818 9.974 156.694 9.974C157.558 9.974 158.308 10.16 158.944 10.532C159.58 10.904 160.054 11.372 160.366 11.936V10.136H162.022V20H160.366V18.164C160.042 18.74 159.556 19.22 158.908 19.604C158.272 19.976 157.528 20.162 156.676 20.162C155.8 20.162 155.008 19.946 154.3 19.514C153.592 19.082 153.034 18.476 152.626 17.696C152.218 16.916 152.014 16.028 152.014 15.032ZM160.366 15.05C160.366 14.306 160.216 13.658 159.916 13.106C159.616 12.554 159.208 12.134 158.692 11.846C158.188 11.546 157.63 11.396 157.018 11.396C156.406 11.396 155.848 11.54 155.344 11.828C154.84 12.116 154.438 12.536 154.138 13.088C153.838 13.64 153.688 14.288 153.688 15.032C153.688 15.788 153.838 16.448 154.138 17.012C154.438 17.564 154.84 17.99 155.344 18.29C155.848 18.578 156.406 18.722 157.018 18.722C157.63 18.722 158.188 18.578 158.692 18.29C159.208 17.99 159.616 17.564 159.916 17.012C160.216 16.448 160.366 15.794 160.366 15.05ZM164.178 15.032C164.178 14.024 164.382 13.142 164.79 12.386C165.198 11.618 165.756 11.024 166.464 10.604C167.184 10.184 167.988 9.974 168.876 9.974C169.644 9.974 170.358 10.154 171.018 10.514C171.678 10.862 172.182 11.324 172.53 11.9V6.68H174.186V20H172.53V18.146C172.206 18.734 171.726 19.22 171.09 19.604C170.454 19.976 169.71 20.162 168.858 20.162C167.982 20.162 167.184 19.946 166.464 19.514C165.756 19.082 165.198 18.476 164.79 17.696C164.382 16.916 164.178 16.028 164.178 15.032ZM172.53 15.05C172.53 14.306 172.38 13.658 172.08 13.106C171.78 12.554 171.372 12.134 170.856 11.846C170.352 11.546 169.794 11.396 169.182 11.396C168.57 11.396 168.012 11.54 167.508 11.828C167.004 12.116 166.602 12.536 166.302 13.088C166.002 13.64 165.852 14.288 165.852 15.032C165.852 15.788 166.002 16.448 166.302 17.012C166.602 17.564 167.004 17.99 167.508 18.29C168.012 18.578 168.57 18.722 169.182 18.722C169.794 18.722 170.352 18.578 170.856 18.29C171.372 17.99 171.78 17.564 172.08 17.012C172.38 16.448 172.53 15.794 172.53 15.05ZM185.954 14.69C185.954 15.002 185.936 15.332 185.9 15.68H178.016C178.076 16.652 178.406 17.414 179.006 17.966C179.618 18.506 180.356 18.776 181.22 18.776C181.928 18.776 182.516 18.614 182.984 18.29C183.464 17.954 183.8 17.51 183.992 16.958H185.756C185.492 17.906 184.964 18.68 184.172 19.28C183.38 19.868 182.396 20.162 181.22 20.162C180.284 20.162 179.444 19.952 178.7 19.532C177.968 19.112 177.392 18.518 176.972 17.75C176.552 16.97 176.342 16.07 176.342 15.05C176.342 14.03 176.546 13.136 176.954 12.368C177.362 11.6 177.932 11.012 178.664 10.604C179.408 10.184 180.26 9.974 181.22 9.974C182.156 9.974 182.984 10.178 183.704 10.586C184.424 10.994 184.976 11.558 185.36 12.278C185.756 12.986 185.954 13.79 185.954 14.69ZM184.262 14.348C184.262 13.724 184.124 13.19 183.848 12.746C183.572 12.29 183.194 11.948 182.714 11.72C182.246 11.48 181.724 11.36 181.148 11.36C180.32 11.36 179.612 11.624 179.024 12.152C178.448 12.68 178.118 13.412 178.034 14.348H184.262Z" fill="#359830"/>
<path d="M18.8719 4.38308L23.1 9.14065C23.2781 9.34108 23.2781 9.6681 23.1 9.86853L12.8625 21.388L8.5125 21.9312C7.93125 22.0051 7.43906 21.4513 7.50469 20.7972L7.9875 15.9025L18.225 4.38308C18.4031 4.18265 18.6938 4.18265 18.8719 4.38308ZM26.4656 3.17523L24.1781 0.601289C23.4656 -0.20043 22.3078 -0.20043 21.5906 0.601289L19.9313 2.46845C19.7531 2.66888 19.7531 2.9959 19.9313 3.19633L24.1594 7.9539C24.3375 8.15433 24.6281 8.15433 24.8062 7.9539L26.4656 6.08674C27.1781 5.27974 27.1781 3.97695 26.4656 3.17523ZM18 18.2549V23.6243H3V6.74604H13.7719C13.9219 6.74604 14.0625 6.67748 14.1703 6.56144L16.0453 4.45165C16.4016 4.05079 16.1484 3.37038 15.6469 3.37038H2.25C1.00781 3.37038 0 4.5044 0 5.90213V24.4683C0 25.866 1.00781 27 2.25 27H18.75C19.9922 27 21 25.866 21 24.4683V16.1451C21 15.5808 20.3953 15.3012 20.0391 15.6968L18.1641 17.8066C18.0609 17.9279 18 18.0861 18 18.2549Z" fill="#359830"/>
</svg>
