<svg width="27" height="27" viewBox="0 0 27 27" fill="none" xmlns="http://www.w3.org/2000/svg">
<path d="M18.8719 4.38308L23.1 9.14065C23.2781 9.34108 23.2781 9.6681 23.1 9.86853L12.8625 21.388L8.5125 21.9312C7.93125 22.0051 7.43906 21.4513 7.50469 20.7972L7.9875 15.9025L18.225 4.38308C18.4031 4.18265 18.6938 4.18265 18.8719 4.38308ZM26.4656 3.17523L24.1781 0.601289C23.4656 -0.20043 22.3078 -0.20043 21.5906 0.601289L19.9313 2.46845C19.7531 2.66888 19.7531 2.9959 19.9313 3.19633L24.1594 7.9539C24.3375 8.15433 24.6281 8.15433 24.8062 7.9539L26.4656 6.08674C27.1781 5.27974 27.1781 3.97695 26.4656 3.17523ZM18 18.2549V23.6243H3V6.74604H13.7719C13.9219 6.74604 14.0625 6.67748 14.1703 6.56144L16.0453 4.45165C16.4016 4.05079 16.1484 3.37038 15.6469 3.37038H2.25C1.00781 3.37038 0 4.5044 0 5.90213V24.4683C0 25.866 1.00781 27 2.25 27H18.75C19.9922 27 21 25.866 21 24.4683V16.1451C21 15.5808 20.3953 15.3012 20.0391 15.6968L18.1641 17.8066C18.0609 17.9279 18 18.0861 18 18.2549Z" fill="#359830"/>
</svg>
