<svg width="20" height="22" viewBox="0 0 20 22" fill="none" xmlns="http://www.w3.org/2000/svg">
<path d="M5.05838 15.5818C4.60578 15.2084 4.84172 15.3137 3.75006 15.0726C3.25476 14.9631 2.81934 14.7525 2.4256 14.5003L0.0626023 19.28C-0.166041 19.7428 0.261038 20.2455 0.86624 20.2266L3.61048 20.1403L5.49796 21.7851C5.91463 22.1477 6.64587 22.0347 6.87451 21.5719L9.58542 16.0884C9.02084 16.3479 8.39429 16.5 7.74638 16.5C6.73076 16.5 5.77661 16.1739 5.05838 15.5818ZM19.9374 19.28L17.5744 14.5003C17.1807 14.7529 16.7452 14.9631 16.2499 15.0726C15.1526 15.315 15.3932 15.2093 14.9416 15.5818C14.2234 16.1739 13.2687 16.5 12.2531 16.5C11.6052 16.5 10.9786 16.3475 10.4141 16.0884L13.125 21.5719C13.3536 22.0347 14.0854 22.1477 14.5015 21.7851L16.3895 20.1403L19.1338 20.2266C19.739 20.2455 20.166 19.7424 19.9374 19.28ZM13.6979 14.6094C14.4937 13.9413 14.5849 13.9989 15.7182 13.7441C16.4416 13.5812 17.0072 13.1064 17.201 12.4988C17.5905 11.2786 17.4895 11.4259 18.5525 10.5331C19.0822 10.0883 19.289 9.43996 19.0952 8.8324C18.7062 7.61297 18.7056 7.78312 19.0952 6.5624C19.289 5.95484 19.0822 5.30645 18.5525 4.86173C17.4895 3.96886 17.5905 4.11581 17.201 2.89595C17.0072 2.28839 16.4416 1.81359 15.7182 1.65074C14.2661 1.32376 14.4411 1.40926 13.377 0.515961C12.8474 0.0712435 12.075 -0.102776 11.3515 0.0600718C9.9 0.386628 10.1026 0.387057 8.64845 0.0600718C7.92502 -0.102776 7.15263 0.0708138 6.62295 0.515961C5.55994 1.40883 5.73494 1.32376 4.28235 1.65074C3.55892 1.81359 2.9933 2.28839 2.79955 2.89595C2.41049 4.11581 2.51101 3.96886 1.448 4.86173C0.918323 5.30645 0.711033 5.95484 0.905302 6.5624C1.29436 7.78097 1.29488 7.61082 0.905302 8.83197C0.711554 9.43953 0.918323 10.0879 1.448 10.5331C2.51101 11.4259 2.40997 11.2786 2.79955 12.4988C2.9933 13.1064 3.55892 13.5812 4.28235 13.7441C5.44796 14.0062 5.53494 13.9649 6.30212 14.6094C6.99118 15.1882 8.0646 15.2918 8.89272 14.8595C9.22387 14.6861 9.60801 14.594 10.0003 14.594C10.3925 14.594 10.7767 14.6861 11.1078 14.8595C11.9354 15.2918 13.0088 15.1882 13.6979 14.6094ZM5.08651 7.56098C5.08651 5.28239 7.28649 3.4352 10 3.4352C12.7135 3.4352 14.9135 5.28239 14.9135 7.56098C14.9135 9.83956 12.7135 11.6868 10 11.6868C7.28649 11.6868 5.08651 9.83956 5.08651 7.56098Z" fill="#359830"/>
<path d="M5.04285 15.6006L5.04285 15.6006C4.98656 15.5542 4.94149 15.5157 4.90324 15.483C4.86358 15.4491 4.83126 15.4214 4.80137 15.3977C4.7442 15.3525 4.69933 15.3246 4.63527 15.3004C4.57019 15.2759 4.48492 15.2551 4.34624 15.2252C4.30023 15.2153 4.24839 15.2044 4.18962 15.192C4.07206 15.1672 3.92674 15.1366 3.7448 15.0965L3.74479 15.0965C3.25558 14.9882 2.82483 14.7823 2.43543 14.5355L0.0844904 19.2909L0.0626051 19.28L5.04285 15.6006ZM5.04285 15.6006C5.76585 16.1967 6.72564 16.5244 7.74638 16.5244C8.37436 16.5244 8.98219 16.3824 9.53333 16.1387M5.04285 15.6006L9.53333 16.1387M9.53333 16.1387L6.85263 21.5611L6.87451 21.5719L6.85262 21.5611C6.74266 21.7837 6.5107 21.924 6.25301 21.9639C5.99544 22.0038 5.71605 21.9425 5.514 21.7667C5.514 21.7667 5.514 21.7667 5.51399 21.7667L9.53333 16.1387ZM1.448 10.5331C1.99689 10.9941 2.23542 11.1778 2.39139 11.4156C2.53748 11.6384 2.61113 11.9087 2.79955 12.4988L1.448 10.5331ZM1.448 10.5331C0.918323 10.0879 0.711554 9.43953 0.905302 8.83197C1.10023 8.22096 1.19749 7.95827 1.19729 7.69566C1.19709 7.43342 1.09969 7.17126 0.905302 6.5624C0.711033 5.95484 0.918323 5.30645 1.448 4.86173C1.99701 4.4006 2.23566 4.21682 2.39169 3.97886C2.53777 3.75608 2.61143 3.4858 2.79955 2.89595C2.9933 2.28839 3.55892 1.81359 4.28235 1.65074C5.02976 1.4825 5.34627 1.42334 5.62224 1.28393C5.88261 1.1524 6.1069 0.94942 6.62295 0.515961L1.448 10.5331ZM14.9571 15.6006L14.9572 15.6006C15.015 15.5529 15.0609 15.5136 15.0996 15.4804C15.1375 15.4479 15.1685 15.4213 15.1974 15.3983C15.2541 15.3531 15.2985 15.3253 15.3622 15.3012C15.427 15.2767 15.5122 15.2559 15.6512 15.2259C15.698 15.2158 15.7508 15.2046 15.8108 15.192C15.9284 15.1672 16.0736 15.1366 16.2552 15.0965L16.2499 15.0726L16.2552 15.0965C16.7444 14.9882 17.1752 14.7827 17.5646 14.5355L19.9155 19.2909C20.025 19.5122 19.978 19.7432 19.8297 19.918C19.681 20.0931 19.4303 20.2115 19.1345 20.2022L16.3903 20.1159L16.3807 20.1156L16.3735 20.1218L14.4855 21.7667C14.2837 21.9425 14.0043 22.0038 13.7467 21.9639C13.4889 21.924 13.2568 21.7837 13.1469 21.5611L13.125 21.5719L13.1469 21.5611L10.4661 16.1386C11.0173 16.382 11.6251 16.5244 12.2531 16.5244C13.2738 16.5244 14.2341 16.1967 14.9571 15.6006ZM13.6822 14.5907L13.6979 14.6094L13.6822 14.5907C13.0011 15.1628 11.9384 15.2658 11.1191 14.8379C10.7843 14.6625 10.3963 14.5695 10.0003 14.5695C9.60427 14.5695 9.21621 14.6625 8.88139 14.8379C8.06161 15.2658 6.99893 15.1628 6.31783 14.5907C5.93396 14.2682 5.71785 14.1152 5.45054 14.0106C5.24429 13.9299 5.00751 13.8782 4.64003 13.798C4.53422 13.7749 4.41758 13.7494 4.28771 13.7202C3.57109 13.5589 3.01345 13.0893 2.82281 12.4914L2.82281 12.4914C2.79741 12.4119 2.77408 12.338 2.75235 12.2693C2.60811 11.8129 2.53457 11.5802 2.39643 11.3793C2.31667 11.2634 2.21583 11.1584 2.06914 11.0271C1.96112 10.9304 1.82748 10.8187 1.65833 10.6773C1.5981 10.627 1.53338 10.5729 1.46371 10.5144C0.940774 10.0749 0.738138 9.43653 0.928561 8.83939C0.953774 8.76036 0.977378 8.68708 0.999363 8.61883C1.06215 8.42391 1.11173 8.26999 1.14789 8.14008C1.1968 7.96434 1.22174 7.83061 1.22171 7.69621C1.22167 7.56181 1.19667 7.42825 1.14774 7.25282C1.11178 7.12392 1.06258 6.97137 1.00038 6.7785C0.978107 6.70942 0.954162 6.63517 0.928559 6.55498L0.928556 6.55497C0.737628 5.95785 0.940764 5.31949 1.4637 4.88043L1.46371 4.88043C1.53338 4.82191 1.5981 4.76781 1.65833 4.71748C1.82749 4.57609 1.96116 4.46438 2.06922 4.36763C2.21594 4.23626 2.31683 4.13131 2.39663 4.0153C2.53495 3.81419 2.6085 3.58127 2.75284 3.12418C2.77443 3.05581 2.7976 2.98242 2.82281 2.90337C3.01345 2.30555 3.57109 1.83588 4.28771 1.67456C4.38306 1.6531 4.47147 1.6334 4.55373 1.61507C5.09628 1.49417 5.37148 1.43285 5.60939 1.31753C5.84779 1.20198 6.0491 1.03204 6.44578 0.697183C6.50539 0.646858 6.56942 0.592807 6.63865 0.534656L6.63866 0.534651C7.16203 0.09481 7.92647 -0.0774256 8.64309 0.0838899L8.64845 0.0600752L8.6431 0.0838911C8.73755 0.105131 8.82508 0.125007 8.90657 0.143513C9.45075 0.267089 9.72608 0.329611 10.001 0.329564C10.2752 0.329517 10.5494 0.267204 11.0899 0.144345C11.1724 0.125601 11.2611 0.105447 11.3569 0.0838906C12.0735 -0.0774233 12.838 0.0952328 13.3614 0.534659C13.4302 0.592466 13.4939 0.64622 13.5533 0.696292C13.9511 1.03193 14.1528 1.20208 14.3915 1.31769C14.6291 1.43282 14.9039 1.49405 15.4449 1.61462C15.5277 1.63308 15.6167 1.65292 15.7128 1.67456C16.4294 1.83588 16.9871 2.30555 17.1777 2.90337L17.201 2.89595L17.1777 2.90338C17.2032 2.98308 17.2265 3.05703 17.2483 3.12588C17.3925 3.58185 17.466 3.81444 17.6041 4.01529C17.6838 4.1313 17.7847 4.23626 17.9314 4.36763C18.0396 4.46458 18.1736 4.57657 18.3433 4.71839C18.4032 4.76846 18.4676 4.82226 18.5368 4.88043L18.5525 4.86173L18.5368 4.88043C19.0597 5.31948 19.2624 5.95784 19.072 6.55498C19.0468 6.63397 19.0232 6.70722 19.0012 6.77544C18.9384 6.97029 18.8888 7.12417 18.8526 7.25405C18.8037 7.42975 18.7788 7.56346 18.7788 7.69789C18.7789 7.83231 18.8039 7.96595 18.8528 8.14148C18.8887 8.27048 18.938 8.42317 19.0002 8.61621C19.0224 8.68532 19.0464 8.7596 19.072 8.83981C19.2624 9.43696 19.0597 10.0753 18.5368 10.5144C18.4671 10.5729 18.4024 10.627 18.3422 10.6773C18.173 10.8187 18.0394 10.9304 17.9314 11.0271C17.7847 11.1584 17.6838 11.2634 17.6041 11.3793C17.4659 11.5802 17.3924 11.8129 17.2482 12.2693C17.2264 12.338 17.2031 12.4119 17.1777 12.4914C16.9871 13.0893 16.4294 13.5589 15.7128 13.7202C15.562 13.7542 15.4293 13.7826 15.3108 13.808C14.986 13.8776 14.7677 13.9243 14.5727 13.9989C14.3048 14.1014 14.0804 14.2564 13.6822 14.5907ZM10 3.41079C7.27717 3.41079 5.0621 5.26508 5.0621 7.56098C5.0621 9.85687 7.27717 11.7112 10 11.7112C12.7228 11.7112 14.9379 9.85687 14.9379 7.56098C14.9379 5.26508 12.7228 3.41079 10 3.41079Z" stroke="#BB1155" stroke-opacity="0.133333" stroke-width="0.0488281"/>
</svg>
