<svg width="29" height="20" viewBox="0 0 29 20" fill="none" xmlns="http://www.w3.org/2000/svg">
<path d="M18.5036 13.3104H20.6387C20.9945 13.3104 21.3504 12.988 21.3504 12.6655V5.89485C21.3504 5.57244 20.9945 5.25003 20.6387 5.25003H18.5036C18.1478 5.25003 17.792 5.57244 17.792 5.89485V12.6655C17.792 12.988 18.1478 13.3104 18.5036 13.3104ZM23.8412 13.3104H25.9763C26.3321 13.3104 26.688 12.988 26.688 12.6655V1.05865C26.688 0.736232 26.3321 0.413818 25.9763 0.413818H23.8412C23.4854 0.413818 23.1296 0.736232 23.1296 1.05865V12.6655C23.1296 12.988 23.4854 13.3104 23.8412 13.3104ZM7.82847 13.3104H9.9635C10.3193 13.3104 10.6752 12.988 10.6752 12.6655V9.11899C10.6752 8.79658 10.3193 8.47416 9.9635 8.47416H7.82847C7.47263 8.47416 7.11679 8.79658 7.11679 9.11899V12.6655C7.11679 12.988 7.47263 13.3104 7.82847 13.3104ZM13.1661 13.3104H15.3011C15.6569 13.3104 16.0128 12.988 16.0128 12.6655V2.67072C16.0128 2.3483 15.6569 2.02589 15.3011 2.02589H13.1661C12.8102 2.02589 12.4544 2.3483 12.4544 2.67072V12.6655C12.4544 12.988 12.8102 13.3104 13.1661 13.3104ZM27.5776 16.5345H3.55839V1.21985C3.55839 0.774519 3.1603 0.413818 2.6688 0.413818H0.889599C0.398095 0.413818 0 0.774519 0 1.21985V18.1466C0 19.0367 0.796747 19.7586 1.7792 19.7586H27.5776C28.0691 19.7586 28.4672 19.3979 28.4672 18.9526V17.3405C28.4672 16.8952 28.0691 16.5345 27.5776 16.5345Z" fill="#359830"/>
</svg>
