<svg width="36" height="31" viewBox="0 0 36 31" fill="none" xmlns="http://www.w3.org/2000/svg">
<path d="M12.5586 15.4996C16.4602 15.4996 19.6223 12.0304 19.6223 7.74982C19.6223 3.46925 16.4602 0 12.5586 0C8.65708 0 5.49499 3.46925 5.49499 7.74982C5.49499 12.0304 8.65708 15.4996 12.5586 15.4996ZM17.5032 17.4371H16.5816C15.3565 18.0546 13.9934 18.4058 12.5586 18.4058C11.1238 18.4058 9.76629 18.0546 8.53567 17.4371H7.61408C3.51938 17.4371 0.197266 21.0819 0.197266 25.5744V28.0931C0.197266 29.6975 1.38374 30.9993 2.84613 30.9993H18.0164C17.884 30.5876 17.8288 30.1516 17.8729 29.7096L18.2482 26.0224L18.3144 25.3504L18.7504 24.8721L23.0161 20.1919C21.6641 18.5148 19.705 17.4371 17.5032 17.4371ZM20.003 26.2343L19.6278 29.9276C19.5671 30.5452 20.0417 31.0659 20.599 30.9932L23.9598 30.5815L31.5697 22.2323L27.613 17.8912L20.003 26.2343ZM35.1292 16.2807L33.0377 13.986C32.5244 13.4229 31.6856 13.4229 31.1724 13.986L29.0864 16.2746L28.8602 16.5229L32.8224 20.864L35.1292 18.3332C35.6424 17.764 35.6424 16.8498 35.1292 16.2807Z" fill="black"/>
</svg>
