<svg width="24" height="21" viewBox="0 0 24 21" fill="none" xmlns="http://www.w3.org/2000/svg">
<path d="M16.4982 14.1473L17.8105 12.835C18.0155 12.6299 18.3723 12.7735 18.3723 13.0687V19.0315C18.3723 20.1183 17.4906 21 16.4038 21H1.96846C0.881707 21 0 20.1183 0 19.0315V4.59615C0 3.5094 0.881707 2.62769 1.96846 2.62769H13.1846C13.4758 2.62769 13.6234 2.98037 13.4183 3.18952L12.106 4.50183C12.0445 4.56334 11.9625 4.59615 11.8723 4.59615H1.96846V19.0315H16.4038V14.3769C16.4038 14.2908 16.4367 14.2088 16.4982 14.1473ZM22.9203 5.87155L12.1511 16.6407L8.44388 17.0508C7.36943 17.1697 6.45491 16.2634 6.57384 15.1807L6.98394 11.4735L17.7531 0.70434C18.6922 -0.23478 20.2095 -0.23478 21.1446 0.70434L22.9162 2.47596C23.8553 3.41508 23.8553 4.93653 22.9203 5.87155ZM18.8685 7.13875L16.4859 4.75609L8.86628 12.3798L8.56691 15.0577L11.2448 14.7583L18.8685 7.13875ZM21.5259 3.87028L19.7543 2.09867C19.5862 1.93053 19.3114 1.93053 19.1474 2.09867L17.8802 3.36586L20.2629 5.74852L21.53 4.48133C21.6941 4.30909 21.6941 4.03842 21.5259 3.87028Z" fill="black"/>
</svg>
