<svg width="15" height="10" viewBox="0 0 15 10" fill="none" xmlns="http://www.w3.org/2000/svg">
<path d="M14.7158 3.30208C14.8301 3.22135 15 3.29688 15 3.42448V8.75C15 9.4401 14.3701 10 13.5938 10H1.40625C0.629883 10 0 9.4401 0 8.75V3.42708C0 3.29688 0.166992 3.22396 0.28418 3.30469C0.94043 3.75781 1.81055 4.33333 4.79883 6.26302C5.41699 6.66406 6.45996 7.50781 7.5 7.5026C8.5459 7.51042 9.60938 6.64844 10.2041 6.26302C13.1924 4.33333 14.0596 3.75521 14.7158 3.30208ZM7.5 6.66667C8.17969 6.67708 9.1582 5.90625 9.65039 5.58854C13.5381 3.08073 13.834 2.86198 14.7305 2.23698C14.9004 2.11979 15 1.9375 15 1.74479V1.25C15 0.559896 14.3701 0 13.5938 0H1.40625C0.629883 0 0 0.559896 0 1.25V1.74479C0 1.9375 0.0996094 2.11719 0.269531 2.23698C1.16602 2.85938 1.46191 3.08073 5.34961 5.58854C5.8418 5.90625 6.82031 6.67708 7.5 6.66667Z" fill="#F2F2F2"/>
</svg>
