<svg width="24" height="23" viewBox="0 0 24 23" fill="none" xmlns="http://www.w3.org/2000/svg">
<path d="M23.3571 21.5625H22.2857V1.07812C22.2857 0.482686 21.7101 0 21 0H3C2.28991 0 1.71429 0.482686 1.71429 1.07812V21.5625H0.642857C0.287839 21.5625 0 21.8039 0 22.1016V23H24V22.1016C24 21.8039 23.7122 21.5625 23.3571 21.5625ZM6.85714 3.41406C6.85714 3.11637 7.14498 2.875 7.5 2.875H9.64286C9.99787 2.875 10.2857 3.11637 10.2857 3.41406V5.21094C10.2857 5.50864 9.99787 5.75 9.64286 5.75H7.5C7.14498 5.75 6.85714 5.50864 6.85714 5.21094V3.41406ZM6.85714 7.72656C6.85714 7.42887 7.14498 7.1875 7.5 7.1875H9.64286C9.99787 7.1875 10.2857 7.42887 10.2857 7.72656V9.52344C10.2857 9.82113 9.99787 10.0625 9.64286 10.0625H7.5C7.14498 10.0625 6.85714 9.82113 6.85714 9.52344V7.72656ZM9.64286 14.375H7.5C7.14498 14.375 6.85714 14.1336 6.85714 13.8359V12.0391C6.85714 11.7414 7.14498 11.5 7.5 11.5H9.64286C9.99787 11.5 10.2857 11.7414 10.2857 12.0391V13.8359C10.2857 14.1336 9.99787 14.375 9.64286 14.375ZM13.7143 21.5625H10.2857V17.7891C10.2857 17.4914 10.5736 17.25 10.9286 17.25H13.0714C13.4264 17.25 13.7143 17.4914 13.7143 17.7891V21.5625ZM17.1429 13.8359C17.1429 14.1336 16.855 14.375 16.5 14.375H14.3571C14.0021 14.375 13.7143 14.1336 13.7143 13.8359V12.0391C13.7143 11.7414 14.0021 11.5 14.3571 11.5H16.5C16.855 11.5 17.1429 11.7414 17.1429 12.0391V13.8359ZM17.1429 9.52344C17.1429 9.82113 16.855 10.0625 16.5 10.0625H14.3571C14.0021 10.0625 13.7143 9.82113 13.7143 9.52344V7.72656C13.7143 7.42887 14.0021 7.1875 14.3571 7.1875H16.5C16.855 7.1875 17.1429 7.42887 17.1429 7.72656V9.52344ZM17.1429 5.21094C17.1429 5.50864 16.855 5.75 16.5 5.75H14.3571C14.0021 5.75 13.7143 5.50864 13.7143 5.21094V3.41406C13.7143 3.11637 14.0021 2.875 14.3571 2.875H16.5C16.855 2.875 17.1429 3.11637 17.1429 3.41406V5.21094Z" fill="#359830"/>
</svg>
