<svg width="23" height="18" viewBox="0 0 23 18" fill="none" xmlns="http://www.w3.org/2000/svg">
<path d="M11.1951 4.66967L3.83364 10.7715V17.3571C3.83364 17.5276 3.90094 17.6911 4.02075 17.8117C4.14055 17.9323 4.30304 18 4.47248 18L8.94675 17.9883C9.11563 17.9875 9.2773 17.9194 9.39641 17.7989C9.51553 17.6784 9.5824 17.5154 9.58239 17.3454V13.4995C9.58239 13.329 9.6497 13.1655 9.76951 13.0449C9.88931 12.9243 10.0518 12.8566 10.2212 12.8566H12.7766C12.946 12.8566 13.1085 12.9243 13.2283 13.0449C13.3481 13.1655 13.4154 13.329 13.4154 13.4995V17.3426C13.4152 17.4272 13.4315 17.511 13.4635 17.5893C13.4955 17.6675 13.5425 17.7386 13.6018 17.7985C13.6612 17.8584 13.7317 17.906 13.8093 17.9384C13.887 17.9708 13.9702 17.9875 14.0543 17.9875L18.5269 18C18.6964 18 18.8589 17.9323 18.9787 17.8117C19.0985 17.6911 19.1658 17.5276 19.1658 17.3571V10.7671L11.806 4.66967C11.7194 4.59948 11.6116 4.56121 11.5005 4.56121C11.3894 4.56121 11.2816 4.59948 11.1951 4.66967ZM22.8231 8.81697L19.4852 6.04795V0.482197C19.4852 0.35431 19.4347 0.231662 19.3449 0.141232C19.255 0.0508028 19.1332 0 19.0061 0H16.7701C16.6431 0 16.5212 0.0508028 16.4313 0.141232C16.3415 0.231662 16.291 0.35431 16.291 0.482197V3.39989L12.7163 0.440004C12.3733 0.155902 11.9428 0.000567925 11.4985 0.000567925C11.0542 0.000567925 10.6238 0.155902 10.2807 0.440004L0.173884 8.81697C0.125367 8.85732 0.0852268 8.90691 0.0557571 8.96288C0.0262874 9.01886 0.00806565 9.08013 0.00213299 9.14319C-0.00379968 9.20626 0.00267301 9.26988 0.0211812 9.33043C0.0396894 9.39097 0.0698704 9.44726 0.11 9.49606L1.12815 10.7417C1.16817 10.7907 1.21739 10.8313 1.27301 10.8611C1.32862 10.8909 1.38952 10.9093 1.45224 10.9154C1.51495 10.9215 1.57824 10.9151 1.63849 10.8965C1.69873 10.878 1.75475 10.8476 1.80332 10.8072L11.1951 3.02217C11.2816 2.95198 11.3894 2.9137 11.5005 2.9137C11.6116 2.9137 11.7194 2.95198 11.806 3.02217L21.1981 10.8072C21.2466 10.8476 21.3025 10.878 21.3627 10.8966C21.4228 10.9152 21.4861 10.9218 21.5487 10.9158C21.6114 10.9098 21.6723 10.8915 21.7279 10.8618C21.7835 10.8322 21.8328 10.7918 21.8729 10.7429L22.891 9.49726C22.9311 9.44818 22.9612 9.39161 22.9795 9.3308C22.9977 9.26998 23.0039 9.20613 22.9976 9.14291C22.9913 9.0797 22.9726 9.01836 22.9427 8.96242C22.9128 8.90648 22.8721 8.85705 22.8231 8.81697Z" fill="#359830"/>
<path d="M22.8094 8.83376L22.8093 8.83367L19.4714 6.06465L19.4635 6.05815V6.04795V0.482197C19.4635 0.360021 19.4153 0.242877 19.3295 0.156528C19.2437 0.070184 19.1273 0.0217014 19.0061 0.0217014H16.7701C16.6489 0.0217014 16.5325 0.0701839 16.4467 0.156528C16.3609 0.242877 16.3127 0.360021 16.3127 0.482197V3.39989V3.44603L16.2772 3.4166L12.7025 0.456718C12.3633 0.17583 11.9377 0.0222693 11.4985 0.0222693C11.0593 0.0222693 10.6337 0.17583 10.2946 0.456718L0.187762 8.83365L22.8094 8.83376ZM22.8094 8.83376C22.8562 8.87203 22.895 8.91923 22.9236 8.97266C22.9522 9.02609 22.97 9.08468 22.976 9.14507C22.982 9.20546 22.9761 9.26646 22.9587 9.32454C22.9412 9.38263 22.9125 9.43666 22.8742 9.48353L21.8561 10.7292L22.8094 8.83376ZM0.126762 9.48228L0.126803 9.48233L1.14495 10.728L1.12815 10.7417L1.14495 10.728C1.18317 10.7748 1.23017 10.8135 1.28326 10.8419C1.33634 10.8704 1.39448 10.888 1.45433 10.8938C1.51419 10.8996 1.5746 10.8935 1.6321 10.8758C1.6896 10.8581 1.74307 10.8291 1.78945 10.7905L1.78947 10.7905L11.1812 3.00546L11.1814 3.00531C11.2718 2.932 11.3844 2.892 11.5005 2.892C11.6166 2.892 11.7292 2.932 11.8196 3.00531L11.8198 3.00546L21.2119 10.7905L21.212 10.7906C21.2583 10.8291 21.3117 10.8581 21.3691 10.8759C21.4265 10.8937 21.4869 10.8999 21.5467 10.8942C21.6065 10.8885 21.6646 10.871 21.7177 10.8427C21.7708 10.8144 21.8178 10.7758 21.8561 10.7292L0.126762 9.48228ZM0.126762 9.48228C0.088441 9.43567 0.059614 9.38192 0.0419346 9.32408C0.0242552 9.26625 0.0180716 9.20547 0.023739 9.14522C0.0294064 9.08498 0.0468131 9.02645 0.0749597 8.97299C0.1031 8.91954 0.141423 8.8722 0.187732 8.83367L0.126762 9.48228ZM13.4371 17.3427V17.3426V13.4995C13.4371 13.3233 13.3676 13.1542 13.2437 13.0296C13.1198 12.9049 12.9518 12.8349 12.7766 12.8349H10.2212C10.046 12.8349 9.87798 12.9049 9.75411 13.0296C9.63025 13.1542 9.56069 13.3233 9.56069 13.4995V17.3454C9.56069 17.5097 9.49607 17.6672 9.38098 17.7836C9.2659 17.9 9.10973 17.9658 8.94664 17.9666L4.47248 17.9783C4.47246 17.9783 4.47244 17.9783 4.47242 17.9783C4.30881 17.9783 4.15188 17.9129 4.03614 17.7964C3.92039 17.6799 3.85534 17.5219 3.85534 17.3571V10.7817L11.2087 4.68653C11.2088 4.6865 11.2088 4.68648 11.2088 4.68645C11.2915 4.61944 11.3944 4.58291 11.5005 4.58291C11.6066 4.58291 11.7096 4.61945 11.7922 4.68648C11.7922 4.6865 11.7923 4.68651 11.7923 4.68653L19.1441 10.7773V17.3571C19.1441 17.5219 19.079 17.6799 18.9633 17.7964C18.8476 17.9129 18.6906 17.9783 18.527 17.9783C18.527 17.9783 18.527 17.9783 18.5269 17.9783L14.0543 17.9658H14.0543C13.9731 17.9658 13.8927 17.9497 13.8177 17.9184C13.7427 17.8871 13.6746 17.8411 13.6173 17.7833C13.5599 17.7254 13.5145 17.6567 13.4836 17.581C13.4527 17.5054 13.4369 17.4244 13.4371 17.3427Z" stroke="#BB1155" stroke-opacity="0.133333" stroke-width="0.0434028"/>
</svg>
