<svg width="30" height="30" viewBox="0 0 30 30" fill="none" xmlns="http://www.w3.org/2000/svg">
<path d="M20.3569 9.19355C19.4797 3.79234 17.4108 0 15.003 0C12.5953 0 10.5263 3.79234 9.64912 9.19355H20.3569ZM9.1954 15C9.1954 16.3427 9.268 17.631 9.39504 18.871H20.605C20.732 17.631 20.8046 16.3427 20.8046 15C20.8046 13.6573 20.732 12.369 20.605 11.129H9.39504C9.268 12.369 9.1954 13.6573 9.1954 15ZM28.8385 9.19355C27.1083 5.08669 23.6056 1.91129 19.2801 0.629032C20.7562 2.67339 21.7725 5.75202 22.3049 9.19355H28.8385ZM10.7199 0.629032C6.40048 1.91129 2.89171 5.08669 1.16757 9.19355H7.70115C8.22747 5.75202 9.2438 2.67339 10.7199 0.629032ZM29.4858 11.129H22.5469C22.6739 12.3992 22.7465 13.6996 22.7465 15C22.7465 16.3004 22.6739 17.6008 22.5469 18.871H29.4797C29.8125 17.631 30 16.3427 30 15C30 13.6573 29.8125 12.369 29.4858 11.129ZM7.25953 15C7.25953 13.6996 7.33212 12.3992 7.45917 11.129H0.520266C0.193587 12.369 0 13.6573 0 15C0 16.3427 0.193587 17.631 0.520266 18.871H7.45312C7.33212 17.6008 7.25953 16.3004 7.25953 15ZM9.64912 20.8065C10.5263 26.2077 12.5953 30 15.003 30C17.4108 30 19.4797 26.2077 20.3569 20.8065H9.64912ZM19.2861 29.371C23.6056 28.0887 27.1143 24.9133 28.8445 20.8065H22.3109C21.7786 24.248 20.7623 27.3266 19.2861 29.371ZM1.16757 20.8065C2.89776 24.9133 6.40048 28.0887 10.726 29.371C9.24985 27.3266 8.23351 24.248 7.70115 20.8065H1.16757Z" fill="#677CE4"/>
</svg>
