<svg width="30" height="30" viewBox="0 0 30 30" fill="none" xmlns="http://www.w3.org/2000/svg">
<circle cx="15" cy="15" r="15" fill="#12121F"/>
<path d="M11.6895 20.2795C11.6895 20.3581 11.5968 20.4209 11.4798 20.4209C11.3468 20.4327 11.254 20.3698 11.254 20.2795C11.254 20.2009 11.3468 20.138 11.4637 20.138C11.5847 20.1263 11.6895 20.1891 11.6895 20.2795ZM10.4355 20.1027C10.4073 20.1813 10.4879 20.2716 10.6089 20.2952C10.7137 20.3345 10.8347 20.2952 10.8589 20.2166C10.8831 20.138 10.8065 20.0477 10.6855 20.0123C10.5806 19.9848 10.4637 20.0241 10.4355 20.1027ZM12.2177 20.0359C12.1008 20.0634 12.0202 20.138 12.0323 20.2284C12.0444 20.307 12.1492 20.3581 12.2702 20.3306C12.3871 20.3031 12.4677 20.2284 12.4556 20.1498C12.4435 20.0752 12.3347 20.0241 12.2177 20.0359ZM14.871 4.98071C9.27823 4.98071 5 9.11775 5 14.567C5 18.924 7.81452 22.6525 11.8347 23.9647C12.3508 24.0551 12.5323 23.7447 12.5323 23.4893C12.5323 23.2457 12.5202 21.9021 12.5202 21.077C12.5202 21.077 9.69758 21.6664 9.10484 19.9062C9.10484 19.9062 8.64516 18.763 7.98387 18.4683C7.98387 18.4683 7.06048 17.8515 8.04839 17.8633C8.04839 17.8633 9.05242 17.9418 9.60484 18.8769C10.4879 20.3934 11.9677 19.9573 12.5444 19.698C12.6371 19.0694 12.8992 18.6333 13.1895 18.374C10.9355 18.1304 8.66129 17.8122 8.66129 14.0327C8.66129 12.9523 8.96774 12.4101 9.6129 11.7186C9.50806 11.4632 9.16532 10.4103 9.71774 9.05096C10.5605 8.79558 12.5 10.1117 12.5 10.1117C13.3065 9.89172 14.1734 9.77779 15.0323 9.77779C15.8911 9.77779 16.7581 9.89172 17.5645 10.1117C17.5645 10.1117 19.504 8.79166 20.3468 9.05096C20.8992 10.4143 20.5565 11.4632 20.4516 11.7186C21.0968 12.414 21.4919 12.9562 21.4919 14.0327C21.4919 17.824 19.1169 18.1265 16.8629 18.374C17.2339 18.6844 17.5484 19.2737 17.5484 20.197C17.5484 21.521 17.5363 23.1593 17.5363 23.4815C17.5363 23.7368 17.7218 24.0472 18.2339 23.9568C22.2661 22.6525 25 18.924 25 14.567C25 9.11775 20.4637 4.98071 14.871 4.98071ZM8.91935 18.5312C8.86694 18.5705 8.87903 18.6608 8.94758 18.7355C9.0121 18.7983 9.10484 18.8258 9.15726 18.7748C9.20968 18.7355 9.19758 18.6451 9.12903 18.5705C9.06452 18.5076 8.97177 18.4801 8.91935 18.5312ZM8.48387 18.2129C8.45565 18.264 8.49597 18.3269 8.57661 18.3662C8.64113 18.4054 8.72177 18.3937 8.75 18.3387C8.77823 18.2876 8.7379 18.2247 8.65726 18.1854C8.57661 18.1619 8.5121 18.1736 8.48387 18.2129ZM9.79032 19.6116C9.72581 19.6627 9.75 19.7805 9.84274 19.8552C9.93548 19.9455 10.0524 19.9573 10.1048 19.8945C10.1573 19.8434 10.1331 19.7255 10.0524 19.6509C9.96371 19.5605 9.84274 19.5487 9.79032 19.6116ZM9.33065 19.0341C9.26613 19.0733 9.26613 19.1755 9.33065 19.2659C9.39516 19.3562 9.50403 19.3955 9.55645 19.3562C9.62097 19.3051 9.62097 19.203 9.55645 19.1126C9.5 19.0223 9.39516 18.983 9.33065 19.0341Z" fill="#F2F2F2"/>
</svg>
