<svg width="30" height="30" viewBox="0 0 30 30" fill="none" xmlns="http://www.w3.org/2000/svg">
<circle cx="15" cy="15" r="15" fill="#0E76A8"/>
<path d="M9.47679 22.3173H5.33036V10.8902H9.47679V22.3173ZM7.40134 9.33147C6.07545 9.33147 5 8.39163 5 7.25694C5 6.71191 5.253 6.18921 5.70334 5.80381C6.15367 5.41842 6.76446 5.2019 7.40134 5.2019C8.03821 5.2019 8.649 5.41842 9.09934 5.80381C9.54968 6.18921 9.80268 6.71191 9.80268 7.25694C9.80268 8.39163 8.72679 9.33147 7.40134 9.33147ZM24.9955 22.3173H20.858V16.7547C20.858 15.429 20.8268 13.7288 18.7022 13.7288C16.5464 13.7288 16.2161 15.1692 16.2161 16.6592V22.3173H12.0741V10.8902H16.0509V12.449H16.1089C16.6625 11.5512 18.0147 10.6037 20.0321 10.6037C24.2286 10.6037 25 12.9686 25 16.0402V22.3173H24.9955Z" fill="#F2F2F2"/>
</svg>
