<svg width="30" height="30" viewBox="0 0 30 30" fill="none" xmlns="http://www.w3.org/2000/svg">
<path d="M30 15C30 23.2843 23.2843 30 15 30C6.71573 30 0 23.2843 0 15C0 6.71573 6.71573 0 15 0C23.2843 0 30 6.71573 30 15Z" fill="url(#paint0_linear_54802_7127)"/>
<path d="M15.0022 10.3882C12.1645 10.3882 9.87563 12.5631 9.87563 15.2595C9.87563 17.9559 12.1645 20.1309 15.0022 20.1309C17.8399 20.1309 20.1288 17.9559 20.1288 15.2595C20.1288 12.5631 17.8399 10.3882 15.0022 10.3882ZM15.0022 18.4265C13.1684 18.4265 11.6693 17.0063 11.6693 15.2595C11.6693 13.5128 13.164 12.0925 15.0022 12.0925C16.8405 12.0925 18.3352 13.5128 18.3352 15.2595C18.3352 17.0063 16.836 18.4265 15.0022 18.4265ZM21.5343 10.1889C21.5343 10.8206 20.9989 11.3251 20.3385 11.3251C19.6737 11.3251 19.1428 10.8164 19.1428 10.1889C19.1428 9.56143 19.6782 9.05267 20.3385 9.05267C20.9989 9.05267 21.5343 9.56143 21.5343 10.1889ZM24.9297 11.3421C24.8539 9.82005 24.488 8.47184 23.3146 7.36105C22.1456 6.25026 20.7267 5.90261 19.1249 5.8263C17.4741 5.73726 12.5259 5.73726 10.8751 5.8263C9.27775 5.89837 7.8589 6.24602 6.68544 7.35681C5.51199 8.4676 5.15059 9.81581 5.07027 11.3378C4.97658 12.9065 4.97658 17.6083 5.07027 19.177C5.14612 20.699 5.51199 22.0472 6.68544 23.158C7.8589 24.2688 9.27328 24.6164 10.8751 24.6927C12.5259 24.7818 17.4741 24.7818 19.1249 24.6927C20.7267 24.6207 22.1456 24.273 23.3146 23.158C24.4835 22.0472 24.8494 20.699 24.9297 19.177C25.0234 17.6083 25.0234 12.9108 24.9297 11.3421ZM22.797 20.8601C22.449 21.6911 21.7752 22.3313 20.8963 22.6662C19.58 23.1622 16.4568 23.0478 15.0022 23.0478C13.5477 23.0478 10.42 23.158 9.1082 22.6662C8.23369 22.3355 7.55996 21.6953 7.20747 20.8601C6.68544 19.6094 6.80591 16.6416 6.80591 15.2595C6.80591 13.8774 6.68991 10.9054 7.20747 9.65894C7.55549 8.82797 8.22922 8.18778 9.1082 7.85285C10.4244 7.35681 13.5477 7.47128 15.0022 7.47128C16.4568 7.47128 19.5845 7.36105 20.8963 7.85285C21.7708 8.18354 22.4445 8.82373 22.797 9.65894C23.319 10.9096 23.1985 13.8774 23.1985 15.2595C23.1985 16.6416 23.319 19.6136 22.797 20.8601Z" fill="#F2F2F2"/>
<defs>
<linearGradient id="paint0_linear_54802_7127" x1="15" y1="0" x2="15" y2="30" gradientUnits="userSpaceOnUse">
<stop offset="0.015" stop-color="#7638FA"/>
<stop offset="0.201667" stop-color="#D300C5"/>
<stop offset="0.491667" stop-color="#FF0069"/>
<stop offset="0.876667" stop-color="#FF7A00"/>
<stop offset="1" stop-color="#FFD600"/>
</linearGradient>
</defs>
</svg>
