<svg width="30" height="30" viewBox="0 0 30 30" fill="none" xmlns="http://www.w3.org/2000/svg">
<circle cx="15" cy="15" r="15" fill="#EA4335"/>
<path d="M23.125 6.47119H6.875C5.83945 6.47119 5 7.36661 5 8.47119V20.4712C5 21.5758 5.83945 22.4712 6.875 22.4712H23.125C24.1605 22.4712 25 21.5758 25 20.4712V8.47119C25 7.36661 24.1605 6.47119 23.125 6.47119ZM23.125 8.47119V10.1714C22.2491 10.9322 20.8528 12.1152 17.8677 14.6085C17.2098 15.1604 15.9067 16.4865 15 16.471C14.0934 16.4867 12.7899 15.1602 12.1323 14.6085C9.14766 12.1156 7.75098 10.9323 6.875 10.1714V8.47119H23.125ZM6.875 20.4712V12.7378C7.77008 13.4982 9.03941 14.5654 10.9741 16.1814C11.8279 16.8982 13.3231 18.4808 15 18.4711C16.6686 18.4808 18.1449 16.9212 19.0255 16.1817C20.9602 14.5657 22.2299 13.4983 23.125 12.7378V20.4712H6.875Z" fill="#F2F2F2"/>
</svg>
