<svg width="30" height="30" viewBox="0 0 30 30" fill="none" xmlns="http://www.w3.org/2000/svg">
<circle cx="15" cy="15" r="15" fill="#359830"/>
<path d="M22.0045 7.88696C20.1339 6.01196 17.6429 4.98071 14.9955 4.98071C9.53125 4.98071 5.08482 9.42714 5.08482 14.8914C5.08482 16.637 5.54018 18.3423 6.40625 19.8468L5 24.9807L10.2545 23.6012C11.7009 24.3914 13.3304 24.8066 14.9911 24.8066H14.9955C20.4554 24.8066 25 20.3602 25 14.8959C25 12.2486 23.875 9.76196 22.0045 7.88696ZM14.9955 23.137C13.5134 23.137 12.0625 22.7396 10.7991 21.9896L10.5 21.8111L7.38393 22.628L8.21429 19.5879L8.01786 19.2754C7.19196 17.9629 6.75893 16.4495 6.75893 14.8914C6.75893 10.3512 10.4554 6.65482 15 6.65482C17.2009 6.65482 19.2679 7.51196 20.8214 9.07C22.375 10.628 23.3304 12.695 23.3259 14.8959C23.3259 19.4405 19.5357 23.137 14.9955 23.137ZM19.5134 16.9673C19.2679 16.8423 18.0491 16.2441 17.8214 16.1637C17.5938 16.0789 17.4286 16.0387 17.2634 16.2887C17.0982 16.5387 16.625 17.0923 16.4777 17.262C16.3348 17.4271 16.1875 17.4495 15.942 17.3245C14.4866 16.5968 13.5312 16.0254 12.5714 14.378C12.317 13.9405 12.8259 13.9718 13.2991 13.0254C13.3795 12.8602 13.3393 12.7173 13.2768 12.5923C13.2143 12.4673 12.7188 11.2486 12.5134 10.753C12.3125 10.2709 12.1071 10.3379 11.9554 10.3289C11.8125 10.32 11.6473 10.32 11.4821 10.32C11.317 10.32 11.0491 10.3825 10.8214 10.628C10.5938 10.878 9.95536 11.4762 9.95536 12.695C9.95536 13.9137 10.8438 15.0923 10.9643 15.2575C11.0893 15.4227 12.7098 17.9227 15.1964 18.9986C16.7679 19.6771 17.3839 19.7352 18.1696 19.6191C18.6473 19.5477 19.6339 19.0209 19.8393 18.4405C20.0446 17.8602 20.0446 17.3646 19.9821 17.262C19.9241 17.1504 19.7589 17.0879 19.5134 16.9673Z" fill="#F2F2F2"/>
</svg>
