<svg width="17" height="15" viewBox="0 0 17 15" fill="none" xmlns="http://www.w3.org/2000/svg">
<path d="M8.50143 3.65419C6.28235 3.65419 4.49243 5.37125 4.49243 7.5C4.49243 9.62875 6.28235 11.3458 8.50143 11.3458C10.7205 11.3458 12.5104 9.62875 12.5104 7.5C12.5104 5.37125 10.7205 3.65419 8.50143 3.65419ZM8.50143 10.0003C7.0674 10.0003 5.89505 8.879 5.89505 7.5C5.89505 6.121 7.06391 4.99972 8.50143 4.99972C9.93895 4.99972 11.1078 6.121 11.1078 7.5C11.1078 8.879 9.93546 10.0003 8.50143 10.0003ZM13.6095 3.49688C13.6095 3.99559 13.1908 4.3939 12.6744 4.3939C12.1545 4.3939 11.7393 3.99225 11.7393 3.49688C11.7393 3.00151 12.158 2.59985 12.6744 2.59985C13.1908 2.59985 13.6095 3.00151 13.6095 3.49688ZM16.2647 4.40729C16.2054 3.20568 15.9193 2.1413 15.0017 1.26436C14.0875 0.387426 12.978 0.112964 11.7254 0.0527167C10.4344 -0.0175722 6.56497 -0.0175722 5.27399 0.0527167C4.02489 0.109617 2.91534 0.384079 1.9977 1.26102C1.08006 2.13796 0.797445 3.20233 0.734641 4.40394C0.66137 5.64236 0.66137 9.35429 0.734641 10.5927C0.793956 11.7943 1.08006 12.8587 1.9977 13.7356C2.91534 14.6126 4.0214 14.887 5.27399 14.9473C6.56497 15.0176 10.4344 15.0176 11.7254 14.9473C12.978 14.8904 14.0875 14.6159 15.0017 13.7356C15.9158 12.8587 16.2019 11.7943 16.2647 10.5927C16.338 9.35429 16.338 5.64571 16.2647 4.40729ZM14.5969 11.9215C14.3248 12.5775 13.7979 13.083 13.1106 13.3474C12.0813 13.739 9.63889 13.6486 8.50143 13.6486C7.36398 13.6486 4.9181 13.7356 3.8923 13.3474C3.20843 13.0863 2.68157 12.5809 2.40593 11.9215C1.9977 10.9341 2.09191 8.59115 2.09191 7.5C2.09191 6.40885 2.00119 4.06253 2.40593 3.07849C2.67808 2.42246 3.20494 1.91705 3.8923 1.65263C4.92159 1.26102 7.36398 1.35139 8.50143 1.35139C9.63889 1.35139 12.0848 1.26436 13.1106 1.65263C13.7944 1.9137 14.3213 2.41911 14.5969 3.07849C15.0052 4.06588 14.911 6.40885 14.911 7.5C14.911 8.59115 15.0052 10.9375 14.5969 11.9215Z" fill="#12121F"/>
</svg>
