<svg width="19" height="22" viewBox="0 0 19 22" fill="none" xmlns="http://www.w3.org/2000/svg">
<path d="M10.6476 3.90203L15.3358 9.26001L5.15555 20.8946L0.975617 21.422C0.416047 21.4927 -0.0567312 20.952 0.00552467 20.3125L0.470613 15.5321L10.6476 3.90203ZM18.2355 3.10432L16.0342 0.588553C15.3476 -0.196184 14.2339 -0.196184 13.5473 0.588553L11.4763 2.95532L16.1646 8.3133L18.2355 5.94653C18.9221 5.16138 18.9221 3.88906 18.2355 3.10432Z" fill="#AAAAAA"/>
<path d="M10.6476 3.90203L15.3358 9.26001L5.15555 20.8946L0.975617 21.422C0.416047 21.4927 -0.0567312 20.952 0.00552467 20.3125L0.470613 15.5321L10.6476 3.90203ZM18.2355 3.10432L16.0342 0.588553C15.3476 -0.196184 14.2339 -0.196184 13.5473 0.588553L11.4763 2.95532L16.1646 8.3133L18.2355 5.94653C18.9221 5.16138 18.9221 3.88906 18.2355 3.10432Z" fill="#AAAAAA"/>
</svg>
