<svg width="30" height="30" viewBox="0 0 30 30" fill="none" xmlns="http://www.w3.org/2000/svg">
<circle cx="15" cy="15" r="15" fill="#FF0000"/>
<path d="M23.3571 7.12501H18.5357L18.158 6.46758C18.078 6.32703 17.9548 6.20881 17.8022 6.1262C17.6496 6.0436 17.4736 5.99989 17.2942 6.00001H12.7018C12.5227 5.9994 12.3471 6.04295 12.1951 6.12564C12.043 6.20834 11.9206 6.32684 11.842 6.46758L11.4643 7.12501H6.64286C6.47236 7.12501 6.30885 7.18427 6.18829 7.28976C6.06773 7.39525 6 7.53832 6 7.68751V8.81251C6 8.96169 6.06773 9.10476 6.18829 9.21025C6.30885 9.31574 6.47236 9.37501 6.64286 9.37501H23.3571C23.5276 9.37501 23.6912 9.31574 23.8117 9.21025C23.9323 9.10476 24 8.96169 24 8.81251V7.68751C24 7.53832 23.9323 7.39525 23.8117 7.28976C23.6912 7.18427 23.5276 7.12501 23.3571 7.12501ZM8.1375 22.418C8.16816 22.8464 8.38426 23.2485 8.74181 23.5424C9.09936 23.8363 9.57147 23.9999 10.0621 24H19.9379C20.4285 23.9999 20.9006 23.8363 21.2582 23.5424C21.6157 23.2485 21.8318 22.8464 21.8625 22.418L22.7143 10.5H7.28571L8.1375 22.418Z" fill="#F2F2F2"/>
</svg>
