<svg width="31" height="30" viewBox="0 0 31 30" fill="none" xmlns="http://www.w3.org/2000/svg">
<circle cx="16" cy="15" r="15" fill="#F2F2F2"/>
<path d="M24.3571 7.12501H19.5357L19.158 6.46758C19.078 6.32703 18.9548 6.20881 18.8022 6.1262C18.6496 6.0436 18.4736 5.99989 18.2942 6.00001H13.7018C13.5227 5.9994 13.3471 6.04295 13.1951 6.12564C13.043 6.20834 12.9206 6.32684 12.842 6.46758L12.4643 7.12501H7.64286C7.47236 7.12501 7.30885 7.18427 7.18829 7.28976C7.06773 7.39525 7 7.53832 7 7.68751V8.81251C7 8.96169 7.06773 9.10476 7.18829 9.21025C7.30885 9.31574 7.47236 9.37501 7.64286 9.37501H24.3571C24.5276 9.37501 24.6912 9.31574 24.8117 9.21025C24.9323 9.10476 25 8.96169 25 8.81251V7.68751C25 7.53832 24.9323 7.39525 24.8117 7.28976C24.6912 7.18427 24.5276 7.12501 24.3571 7.12501ZM9.1375 22.418C9.16816 22.8464 9.38426 23.2485 9.74181 23.5424C10.0994 23.8363 10.5715 23.9999 11.0621 24H20.9379C21.4285 23.9999 21.9006 23.8363 22.2582 23.5424C22.6157 23.2485 22.8318 22.8464 22.8625 22.418L23.7143 10.5H8.28571L9.1375 22.418Z" fill="#FF0000"/>
</svg>
