<svg width="50" height="50" viewBox="0 0 50 50" fill="none" xmlns="http://www.w3.org/2000/svg">
<path d="M8 0.5H42C46.1421 0.5 49.5 3.85786 49.5 8V42C49.5 46.1421 46.1421 49.5 42 49.5H8C3.85787 49.5 0.5 46.1421 0.5 42V8C0.5 3.85787 3.85786 0.5 8 0.5Z" fill="#F5F5F5" stroke="#D9D9D9"/>
<path d="M36.5425 22.9175L34.333 20.708C34.04 20.415 33.6426 20.2505 33.228 20.2505H30.75V16.3438C30.75 15.0493 29.7007 14 28.4062 14H20.5938C19.2993 14 18.25 15.0493 18.25 16.3438V20.25H15.772C15.3574 20.25 14.9604 20.4146 14.667 20.7075L12.4575 22.9175C12.1646 23.2104 12 23.6079 12 24.0225V28.0625H18.25V27.2812C18.25 26.8496 18.5996 26.5 19.0312 26.5H20.5938C21.0254 26.5 21.375 26.8496 21.375 27.2812V28.0625H27.625V27.2812C27.625 26.8496 27.9746 26.5 28.4062 26.5H29.9688C30.4004 26.5 30.75 26.8496 30.75 27.2812V28.0625H37V24.022C37 23.6079 36.8354 23.2104 36.5425 22.9175ZM27.625 20.25H21.375V17.125H27.625V20.25ZM30.75 30.4062C30.75 30.8379 30.4004 31.1875 29.9688 31.1875H28.4062C27.9746 31.1875 27.625 30.8379 27.625 30.4062V29.625H21.375V30.4062C21.375 30.8379 21.0254 31.1875 20.5938 31.1875H19.0312C18.5996 31.1875 18.25 30.8379 18.25 30.4062V29.625H12V34.3125C12 35.1753 12.6997 35.875 13.5625 35.875H35.4375C36.3003 35.875 37 35.1753 37 34.3125V29.625H30.75V30.4062Z" fill="#D9D9D9"/>
</svg>
