<svg width="22" height="28" viewBox="0 0 22 28" fill="none" xmlns="http://www.w3.org/2000/svg">
<path d="M10.9375 27.3134C12.6621 27.3134 14.0611 25.785 14.0611 23.8992H7.814C7.814 25.785 9.21292 27.3134 10.9375 27.3134ZM21.4546 19.3269C20.5113 18.2194 18.7461 16.5534 18.7461 11.0961C18.7461 6.95104 16.086 3.63289 12.4991 2.81882V1.70708C12.4991 0.764454 11.7998 0 10.9375 0C10.0752 0 9.37601 0.764454 9.37601 1.70708V2.81882C5.7891 3.63289 3.12894 6.95104 3.12894 11.0961C3.12894 16.5534 1.3638 18.2194 0.420444 19.3269C0.127475 19.6709 -0.00240765 20.0823 3.37592e-05 20.485C0.00540485 21.3599 0.633823 22.1921 1.56742 22.1921H20.3077C21.2412 22.1921 21.8702 21.3599 21.875 20.485C21.8775 20.0823 21.7476 19.6704 21.4546 19.3269Z" fill="#F2F2F2"/>
</svg>
