<svg width="26" height="22" viewBox="0 0 26 22" fill="none" xmlns="http://www.w3.org/2000/svg">
<path d="M23.0107 0.399902H2.09188C0.936988 0.399902 0 1.43331 0 2.70705V3.47609H25.1026V2.70705C25.1026 1.43331 24.1656 0.399902 23.0107 0.399902ZM0 19.6261C0 20.8998 0.936988 21.9332 2.09188 21.9332H23.0107C24.1656 21.9332 25.1026 20.8998 25.1026 19.6261V5.01419H0V19.6261ZM15.3405 8.4749C15.3405 8.26341 15.4973 8.09038 15.6891 8.09038H21.9647C22.1565 8.09038 22.3134 8.26341 22.3134 8.4749V9.24395C22.3134 9.45544 22.1565 9.62847 21.9647 9.62847H15.6891C15.4973 9.62847 15.3405 9.45544 15.3405 9.24395V8.4749ZM15.3405 11.5511C15.3405 11.3396 15.4973 11.1666 15.6891 11.1666H21.9647C22.1565 11.1666 22.3134 11.3396 22.3134 11.5511V12.3201C22.3134 12.5316 22.1565 12.7047 21.9647 12.7047H15.6891C15.4973 12.7047 15.3405 12.5316 15.3405 12.3201V11.5511ZM15.3405 14.6273C15.3405 14.4158 15.4973 14.2428 15.6891 14.2428H21.9647C22.1565 14.2428 22.3134 14.4158 22.3134 14.6273V15.3963C22.3134 15.6078 22.1565 15.7809 21.9647 15.7809H15.6891C15.4973 15.7809 15.3405 15.6078 15.3405 15.3963V14.6273ZM7.67023 8.09038C9.20863 8.09038 10.4594 9.46986 10.4594 11.1666C10.4594 12.8633 9.20863 14.2428 7.67023 14.2428C6.13182 14.2428 4.88105 12.8633 4.88105 11.1666C4.88105 9.46986 6.13182 8.09038 7.67023 8.09038ZM2.92427 17.9053C3.29035 16.6701 4.34065 15.7809 5.57835 15.7809H5.93571C6.47176 16.026 7.05574 16.1654 7.67023 16.1654C8.28472 16.1654 8.87306 16.026 9.40475 15.7809H9.76211C10.9998 15.7809 12.0501 16.6701 12.4162 17.9053C12.5556 18.3812 12.1896 18.857 11.7363 18.857H3.60414C3.15089 18.857 2.78482 18.3764 2.92427 17.9053Z" fill="#359830"/>
</svg>
