<svg width="25" height="30" viewBox="0 0 25 30" fill="none" xmlns="http://www.w3.org/2000/svg">
<path d="M21.8382 3.72414H16.6387C16.6387 1.67004 14.7733 0 12.479 0C10.1847 0 8.31933 1.67004 8.31933 3.72414H3.11975C1.39739 3.72414 0 4.97522 0 6.51724V27C0 28.542 1.39739 29.7931 3.11975 29.7931H21.8382C23.5606 29.7931 24.958 28.542 24.958 27V6.51724C24.958 4.97522 23.5606 3.72414 21.8382 3.72414ZM6.2395 24.6724C5.37507 24.6724 4.67962 24.0498 4.67962 23.2759C4.67962 22.5019 5.37507 21.8793 6.2395 21.8793C7.10393 21.8793 7.79937 22.5019 7.79937 23.2759C7.79937 24.0498 7.10393 24.6724 6.2395 24.6724ZM6.2395 19.0862C5.37507 19.0862 4.67962 18.4636 4.67962 17.6897C4.67962 16.9157 5.37507 16.2931 6.2395 16.2931C7.10393 16.2931 7.79937 16.9157 7.79937 17.6897C7.79937 18.4636 7.10393 19.0862 6.2395 19.0862ZM6.2395 13.5C5.37507 13.5 4.67962 12.8774 4.67962 12.1034C4.67962 11.3295 5.37507 10.7069 6.2395 10.7069C7.10393 10.7069 7.79937 11.3295 7.79937 12.1034C7.79937 12.8774 7.10393 13.5 6.2395 13.5ZM12.479 2.32759C13.3434 2.32759 14.0389 2.95022 14.0389 3.72414C14.0389 4.49806 13.3434 5.12069 12.479 5.12069C11.6146 5.12069 10.9191 4.49806 10.9191 3.72414C10.9191 2.95022 11.6146 2.32759 12.479 2.32759ZM20.7983 23.7414C20.7983 23.9974 20.5643 24.2069 20.2784 24.2069H10.9191C10.6331 24.2069 10.3992 23.9974 10.3992 23.7414V22.8103C10.3992 22.5543 10.6331 22.3448 10.9191 22.3448H20.2784C20.5643 22.3448 20.7983 22.5543 20.7983 22.8103V23.7414ZM20.7983 18.1552C20.7983 18.4112 20.5643 18.6207 20.2784 18.6207H10.9191C10.6331 18.6207 10.3992 18.4112 10.3992 18.1552V17.2241C10.3992 16.9681 10.6331 16.7586 10.9191 16.7586H20.2784C20.5643 16.7586 20.7983 16.9681 20.7983 17.2241V18.1552ZM20.7983 12.569C20.7983 12.825 20.5643 13.0345 20.2784 13.0345H10.9191C10.6331 13.0345 10.3992 12.825 10.3992 12.569V11.6379C10.3992 11.3819 10.6331 11.1724 10.9191 11.1724H20.2784C20.5643 11.1724 20.7983 11.3819 20.7983 11.6379V12.569Z" fill="#359830"/>
</svg>
