<svg width="24" height="25" viewBox="0 0 24 25" fill="none" xmlns="http://www.w3.org/2000/svg">
<path d="M18.9677 2.68353C22.0161 4.91567 24 8.56646 24 12.6984C24 19.4841 18.6387 24.9851 12.0242 25C5.41936 25.0149 0.00968625 19.494 8.83143e-06 12.7182C-0.00482988 8.5863 1.97904 4.92559 5.02259 2.68849C5.58872 2.27678 6.37743 2.45039 6.71614 3.07043L7.48065 4.46428C7.76614 4.98511 7.63065 5.64483 7.1613 6.00198C5.15323 7.52975 3.87098 9.95039 3.87098 12.6934C3.86614 17.2718 7.47581 21.0317 12 21.0317C16.4323 21.0317 20.1581 17.3512 20.129 12.6438C20.1145 10.0744 18.9339 7.59424 16.8339 5.99702C16.3645 5.63987 16.2339 4.98015 16.5194 4.46428L17.2839 3.07043C17.6226 2.45535 18.4065 2.27182 18.9677 2.68353ZM13.9355 13.0952V1.19047C13.9355 0.530753 13.4177 0 12.7742 0H11.2258C10.5823 0 10.0645 0.530753 10.0645 1.19047V13.0952C10.0645 13.7549 10.5823 14.2857 11.2258 14.2857H12.7742C13.4177 14.2857 13.9355 13.7549 13.9355 13.0952Z" fill="white"/>
</svg>
