<svg width="25" height="24" viewBox="0 0 25 24" fill="none" xmlns="http://www.w3.org/2000/svg">
<path d="M25 11.25C25 10.1423 24.4379 9.18563 23.6111 8.66625V1.50047C23.6111 1.09031 23.3082 0 22.2222 0C21.9132 0 21.6063 0.111563 21.355 0.329062L17.6645 3.51797C15.8108 5.11828 13.4835 6 11.1111 6H2.77778C1.24349 6 0 7.34297 0 9V13.5C0 15.157 1.24349 16.5 2.77778 16.5H4.24045C4.18012 16.9912 4.14583 17.4909 4.14583 18C4.14583 19.8642 4.54774 21.6258 5.25521 23.2003C5.48047 23.7014 5.97222 24 6.48785 24H9.71181C10.8424 24 11.5213 22.6012 10.8359 21.63C10.1241 20.6213 9.70095 19.3631 9.70095 18C9.70095 17.4792 9.77127 16.9786 9.89236 16.5H11.1111C13.4835 16.5 15.8108 17.3817 17.6641 18.982L21.3546 22.1709C21.6007 22.3837 21.9065 22.4997 22.2218 22.5C23.3034 22.5 23.6107 21.4322 23.6107 21V13.8342C24.4379 13.3144 25 12.3577 25 11.25ZM20.8333 17.8791L19.3989 16.6397C17.0551 14.6147 14.1111 13.5 11.1111 13.5V9C14.1111 9 17.0551 7.88531 19.3989 5.86031L20.8333 4.62094V17.8791Z" fill="#359830"/>
<path d="M23.5894 8.66625V8.67825L23.5996 8.68463C24.42 9.20001 24.9783 10.1498 24.9783 11.25C24.9783 12.3502 24.42 13.3 23.5991 13.8158L23.589 13.8222V13.8342V21C23.589 21.2123 23.5132 21.5831 23.3037 21.9001C23.095 22.2161 22.754 22.4783 22.2218 22.4783C21.9119 22.478 21.6111 22.364 21.3688 22.1545L17.6783 18.9656L17.6641 18.982L17.6782 18.9656C15.8211 17.362 13.4889 16.4783 11.1111 16.4783H9.89236H9.87547L9.87132 16.4947C9.74983 16.9748 9.67925 17.4772 9.67925 18C9.67925 19.3676 10.1038 20.6301 10.8182 21.6425C11.4946 22.601 10.8229 23.9783 9.71181 23.9783H6.48785C5.98052 23.9783 5.49666 23.6845 5.275 23.1914C4.56876 21.6196 4.16753 19.8611 4.16753 18C4.16753 17.4919 4.20176 16.9931 4.26199 16.5026L4.26498 16.4783H4.24045H2.77778C1.25702 16.4783 0.0217014 15.1466 0.0217014 13.5V9C0.0217014 7.35335 1.25702 6.0217 2.77778 6.0217H11.1111C13.4889 6.0217 15.8211 5.13799 17.6787 3.5344L17.6645 3.51797L17.6787 3.53439L21.3692 0.345483L21.3692 0.345472C21.6166 0.131338 21.9185 0.0217014 22.2222 0.0217014C22.7565 0.0217014 23.0974 0.289316 23.3057 0.608291C23.5147 0.928295 23.5894 1.29921 23.5894 1.50047V8.66625ZM20.8191 17.8955L20.855 17.9265V17.8791V4.62094V4.57351L20.8191 4.60452L19.3847 5.84389C17.0447 7.8656 14.1057 8.9783 11.1111 8.9783H11.0894V9V13.5V13.5217H11.1111C14.1057 13.5217 17.0447 14.6344 19.3847 16.6561L20.8191 17.8955Z" stroke="#BB1155" stroke-opacity="0.133333" stroke-width="0.0434028"/>
</svg>
