<svg width="30" height="30" viewBox="0 0 30 30" fill="none" xmlns="http://www.w3.org/2000/svg">
<circle cx="15" cy="15" r="15" fill="#12121F"/>
<path d="M11.6895 21.104C11.6895 21.1867 11.5968 21.2529 11.4798 21.2529C11.3468 21.2653 11.254 21.1991 11.254 21.104C11.254 21.0213 11.3468 20.9551 11.4637 20.9551C11.5847 20.9427 11.6895 21.0089 11.6895 21.104ZM10.4355 20.9179C10.4073 21.0006 10.4879 21.0957 10.6089 21.1205C10.7137 21.1619 10.8347 21.1205 10.8589 21.0378C10.8831 20.9551 10.8065 20.86 10.6855 20.8228C10.5806 20.7938 10.4637 20.8352 10.4355 20.9179ZM12.2177 20.8476C12.1008 20.8765 12.0202 20.9551 12.0323 21.0502C12.0444 21.1329 12.1492 21.1867 12.2702 21.1577C12.3871 21.1288 12.4677 21.0502 12.4556 20.9675C12.4435 20.8889 12.3347 20.8352 12.2177 20.8476ZM14.871 5C9.27823 5 5 9.35477 5 15.0908C5 19.6772 7.81452 23.6019 11.8347 24.9832C12.3508 25.0783 12.5323 24.7516 12.5323 24.4827C12.5323 24.2263 12.5202 22.812 12.5202 21.9435C12.5202 21.9435 9.69758 22.5638 9.10484 20.7111C9.10484 20.7111 8.64516 19.5076 7.98387 19.1975C7.98387 19.1975 7.06048 18.5482 8.04839 18.5606C8.04839 18.5606 9.05242 18.6433 9.60484 19.6276C10.4879 21.2239 11.9677 20.7649 12.5444 20.4919C12.6371 19.8302 12.8992 19.3712 13.1895 19.0982C10.9355 18.8418 8.66129 18.5068 8.66129 14.5284C8.66129 13.3911 8.96774 12.8204 9.6129 12.0925C9.50806 11.8237 9.16532 10.7154 9.71774 9.28447C10.5605 9.01565 12.5 10.4011 12.5 10.4011C13.3065 10.1695 14.1734 10.0496 15.0323 10.0496C15.8911 10.0496 16.7581 10.1695 17.5645 10.4011C17.5645 10.4011 19.504 9.01152 20.3468 9.28447C20.8992 10.7195 20.5565 11.8237 20.4516 12.0925C21.0968 12.8245 21.4919 13.3952 21.4919 14.5284C21.4919 18.5192 19.1169 18.8377 16.8629 19.0982C17.2339 19.4249 17.5484 20.0453 17.5484 21.0171C17.5484 22.4108 17.5363 24.1354 17.5363 24.4745C17.5363 24.7433 17.7218 25.07 18.2339 24.9749C22.2661 23.6019 25 19.6772 25 15.0908C25 9.35477 20.4637 5 14.871 5ZM8.91935 19.2636C8.86694 19.305 8.87903 19.4001 8.94758 19.4787C9.0121 19.5449 9.10484 19.5738 9.15726 19.52C9.20968 19.4787 9.19758 19.3836 9.12903 19.305C9.06452 19.2388 8.97177 19.2099 8.91935 19.2636ZM8.48387 18.9287C8.45565 18.9824 8.49597 19.0486 8.57661 19.0899C8.64113 19.1313 8.72177 19.1189 8.75 19.061C8.77823 19.0072 8.7379 18.9411 8.65726 18.8997C8.57661 18.8749 8.5121 18.8873 8.48387 18.9287ZM9.79032 20.4009C9.72581 20.4547 9.75 20.5788 9.84274 20.6573C9.93548 20.7524 10.0524 20.7649 10.1048 20.6987C10.1573 20.6449 10.1331 20.5209 10.0524 20.4423C9.96371 20.3472 9.84274 20.3348 9.79032 20.4009ZM9.33065 19.793C9.26613 19.8343 9.26613 19.9419 9.33065 20.037C9.39516 20.1321 9.50403 20.1735 9.55645 20.1321C9.62097 20.0783 9.62097 19.9708 9.55645 19.8757C9.5 19.7806 9.39516 19.7392 9.33065 19.793Z" fill="#F2F2F2"/>
</svg>
