<svg width="30" height="30" viewBox="0 0 30 30" fill="none" xmlns="http://www.w3.org/2000/svg">
<circle cx="15" cy="15" r="15" fill="#0E76A8"/>
<path d="M9.47679 25H5.33036V11.647H9.47679V25ZM7.40134 9.82555C6.07545 9.82555 5 8.72732 5 7.40139C5 6.7645 5.253 6.1537 5.70334 5.70335C6.15367 5.253 6.76446 5 7.40134 5C8.03821 5 8.649 5.253 9.09934 5.70335C9.54968 6.1537 9.80268 6.7645 9.80268 7.40139C9.80268 8.72732 8.72679 9.82555 7.40134 9.82555ZM24.9955 25H20.858V18.4999C20.858 16.9507 20.8268 14.9641 18.7022 14.9641C16.5464 14.9641 16.2161 16.6471 16.2161 18.3882V25H12.0741V11.647H16.0509V13.4685H16.1089C16.6625 12.4194 18.0147 11.3122 20.0321 11.3122C24.2286 11.3122 25 14.0756 25 17.665V25H24.9955Z" fill="#F2F2F2"/>
</svg>
