<svg width="30" height="30" viewBox="0 0 30 30" fill="none" xmlns="http://www.w3.org/2000/svg">
<circle cx="15" cy="15" r="15" fill="#60D953"/>
<path d="M23.4867 18.7194L19.5491 17.0319C19.3809 16.9602 19.1939 16.9451 19.0164 16.9889C18.8389 17.0326 18.6804 17.1329 18.5647 17.2745L16.8209 19.405C14.0842 18.1147 11.8818 15.9123 10.5915 13.1756L12.722 11.4318C12.8639 11.3163 12.9644 11.1578 13.0081 10.9802C13.0519 10.8026 13.0366 10.6155 12.9646 10.4474L11.277 6.50981C11.198 6.32854 11.0581 6.18054 10.8817 6.09133C10.7052 6.00213 10.5031 5.9773 10.3102 6.02113L6.65392 6.86489C6.468 6.90783 6.30212 7.01251 6.18336 7.16186C6.06459 7.31121 5.99996 7.4964 6 7.68721C6 16.705 13.3091 24 22.3128 24C22.5037 24.0001 22.6889 23.9355 22.8384 23.8168C22.9878 23.698 23.0925 23.5321 23.1355 23.3461L23.9792 19.6898C24.0228 19.496 23.9974 19.2931 23.9075 19.116C23.8176 18.9389 23.6688 18.7987 23.4867 18.7194Z" fill="#F2F2F2"/>
</svg>
